<?xml version="1.0" encoding="iso-8859-1"?>
<!-- Generator: Adobe Illustrator 19.0.0, SVG Export Plug-In . SVG Version: 6.00 Build 0)  -->
<svg version="1.1" id="Layer_1" xmlns="http://www.w3.org/2000/svg" xmlns:xlink="http://www.w3.org/1999/xlink" x="0px" y="0px"
	 viewBox="0 0 512 512" style="enable-background:new 0 0 512 512;" xml:space="preserve">
<path style="fill:#FF5E5B;" d="M256,512c-104.509,0-189.535-85.025-189.535-189.535c0-85.316,122.967-251.917,174.646-315.388
	c7.683-9.435,22.104-9.423,29.778,0c51.679,63.471,174.646,229.92,174.646,315.388C445.535,426.975,360.509,512,256,512z"/>
<g>
	<path style="fill:#FF423D;" d="M126.982,322.465c0-6.528,1.773-21.673,13.646-49.772c9.875-23.37,45.257-8.448,35.372,14.947
		c-10.483,24.809-10.618,34.728-10.618,34.825C165.348,348.178,126.982,347.814,126.982,322.465z"/>
	<path style="fill:#FF423D;" d="M270.889,7.077C267.25,2.609,261.788,0,255.996,0v512c0.001,0,0.003,0,0.004,0
		c104.509,0,189.535-85.025,189.535-189.535C445.535,237.149,322.548,70.515,270.889,7.077z"/>
</g>
<g>
</g>
<g>
</g>
<g>
</g>
<g>
</g>
<g>
</g>
<g>
</g>
<g>
</g>
<g>
</g>
<g>
</g>
<g>
</g>
<g>
</g>
<g>
</g>
<g>
</g>
<g>
</g>
<g>
</g>
</svg>
