<?xml version="1.0" encoding="iso-8859-1"?>
<!-- Generator: Adobe Illustrator 19.0.0, SVG Export Plug-In . SVG Version: 6.00 Build 0)  -->
<svg version="1.1" id="Layer_1" xmlns="http://www.w3.org/2000/svg" xmlns:xlink="http://www.w3.org/1999/xlink" x="0px" y="0px"
	 viewBox="0 0 503.467 503.467" style="enable-background:new 0 0 503.467 503.467;" xml:space="preserve">
<g transform="translate(1 1)">
	<path style="fill:#AAB1BA;" d="M3.281,498.2V276.333h51.2c9.387,0,17.067,7.68,17.067,17.067v17.067v119.467v51.2
		c0,9.387-7.68,17.067-17.067,17.067H3.281z"/>
	<path style="fill:#FFD0A1;" d="M344.615,370.2c0,0,8.533,8.533,8.533,25.6l0.853,2.56c2.56-0.853,5.12-1.707,7.68-3.413
		l98.133-47.787c11.947-6.827,28.16-2.56,34.987,9.387s2.56,28.16-9.387,34.987l-115.2,72.533c0,0-25.6,17.067-85.333,17.067
		c-51.2,0-128-42.667-128-42.667s-17.067-8.533-51.2-8.533H71.548V310.467h102.4c25.6,0,68.267,51.2,93.867,51.2h51.2
		C336.081,361.667,344.615,370.2,344.615,370.2"/>
	<path style="fill:#FFE079;" d="M336.081,3.267c70.827,0,128,57.173,128,128s-57.173,128-128,128s-128-57.173-128-128
		S265.255,3.267,336.081,3.267"/>
</g>
<path style="fill:#51565F;" d="M55.481,503.467h-51.2c-2.56,0-4.267-1.707-4.267-4.267c0-2.56,1.707-4.267,4.267-4.267h51.2
	c6.827,0,12.8-5.973,12.8-12.8V294.4c0-6.827-5.973-12.8-12.8-12.8h-51.2c-2.56,0-4.267-1.707-4.267-4.267s1.707-4.267,4.267-4.267
	h51.2c11.947,0,21.333,9.387,21.333,21.333v187.733C76.815,494.08,67.428,503.467,55.481,503.467z M285.881,486.4
	c-52.053,0-127.147-41.813-129.707-43.52l0,0c0,0-17.067-7.68-49.493-7.68c-2.56,0-4.267-1.707-4.267-4.267
	c0-2.56,1.707-4.267,4.267-4.267c34.987,0,52.053,8.533,52.907,9.387c0.853,0.853,76.8,41.813,126.293,41.813
	c57.173,0,82.773-16.213,82.773-16.213l115.2-71.68c5.12-2.56,8.533-7.68,10.24-12.8c1.707-5.12,0.853-11.093-2.56-16.213
	c-3.413-5.12-7.68-8.533-12.8-10.24c-5.12-1.707-11.093-0.853-16.213,1.707l-98.133,47.787c-17.92,9.387-34.987,9.387-69.973,9.387
	c-34.133,0-83.627-8.533-86.187-8.533s-4.267-2.56-3.413-5.12c0-2.56,2.56-4.267,5.12-3.413c0.853,0,51.2,8.533,84.48,8.533
	s50.347,0,66.56-7.68l98.133-47.787c13.653-7.68,32.427-3.413,40.107,11.093c4.267,6.827,5.12,15.36,3.413,23.04
	c-1.707,7.68-6.827,14.507-13.653,17.92l-115.2,71.68C372.068,469.333,346.468,486.4,285.881,486.4z M25.615,460.8
	c-5.12,0-8.533-3.413-8.533-8.533s3.413-8.533,8.533-8.533s8.533,3.413,8.533,8.533S30.735,460.8,25.615,460.8z M345.615,375.467
	c-0.853,0-2.56,0-3.413-0.853l0,0c0,0-7.68-7.68-22.187-7.68h-51.2c-14.507,0-31.573-12.8-49.493-26.453
	c-16.213-11.947-33.28-24.747-44.373-24.747h-68.267c-2.56,0-4.267-1.707-4.267-4.267c0-2.56,1.707-4.267,4.267-4.267h68.267
	c14.507,0,31.573,12.8,49.493,26.453c16.213,11.947,33.28,24.747,44.373,24.747h51.2c18.773,0,28.16,9.387,29.013,9.387
	c1.707,1.707,1.707,4.267,0,5.973C348.175,375.467,346.468,375.467,345.615,375.467z M337.081,264.533
	c-72.533,0-132.267-59.733-132.267-132.267S264.548,0,337.081,0s132.267,59.733,132.267,132.267S409.615,264.533,337.081,264.533z
	 M337.081,8.533c-68.267,0-123.733,55.467-123.733,123.733S268.815,256,337.081,256s123.733-55.467,123.733-123.733
	S405.348,8.533,337.081,8.533z M337.081,196.267c-2.56,0-4.267-1.707-4.267-4.267v-4.267c-14.507-1.707-25.6-14.507-25.6-29.867
	c0-2.56,1.707-4.267,4.267-4.267s4.267,1.707,4.267,4.267c0,11.947,9.387,21.333,21.333,21.333s21.333-9.387,21.333-21.333
	c0-11.947-9.387-21.333-21.333-21.333c-16.213,0-29.867-13.653-29.867-29.867c0-15.36,11.093-27.307,25.6-29.867v-4.267
	c0-2.56,1.707-4.267,4.267-4.267s4.267,1.707,4.267,4.267V76.8c14.507,1.707,25.6,14.507,25.6,29.867
	c0,2.56-1.707,4.267-4.267,4.267s-4.267-1.707-4.267-4.267c0-11.947-9.387-21.333-21.333-21.333s-21.333,9.387-21.333,21.333
	S325.135,128,337.081,128c16.213,0,29.867,13.653,29.867,29.867c0,15.36-11.093,27.307-25.6,29.867V192
	C341.348,194.56,339.641,196.267,337.081,196.267z"/>
<g>
</g>
<g>
</g>
<g>
</g>
<g>
</g>
<g>
</g>
<g>
</g>
<g>
</g>
<g>
</g>
<g>
</g>
<g>
</g>
<g>
</g>
<g>
</g>
<g>
</g>
<g>
</g>
<g>
</g>
</svg>
