<?xml version="1.0" encoding="UTF-8" standalone="no"?>
<svg
   xmlns:dc="http://purl.org/dc/elements/1.1/"
   xmlns:cc="http://creativecommons.org/ns#"
   xmlns:rdf="http://www.w3.org/1999/02/22-rdf-syntax-ns#"
   xmlns:svg="http://www.w3.org/2000/svg"
   xmlns="http://www.w3.org/2000/svg"
   xmlns:sodipodi="http://sodipodi.sourceforge.net/DTD/sodipodi-0.dtd"
   xmlns:inkscape="http://www.inkscape.org/namespaces/inkscape"
   viewBox="0 0 700 700"
   version="1.1"
   id="svg6"
   sodipodi:docname="nubank-logo.svg"
   width="700"
   height="700"
   inkscape:export-filename="C:\Users\alex\sites\nubank-logo-0.png"
   inkscape:export-xdpi="561.73712"
   inkscape:export-ydpi="561.73712"
   inkscape:version="0.92.3 (2405546, 2018-03-11)">
  <metadata
     id="metadata12">
    <rdf:RDF>
      <cc:Work
         rdf:about="">
        <dc:format>image/svg+xml</dc:format>
        <dc:type
           rdf:resource="http://purl.org/dc/dcmitype/StillImage" />
        <dc:title></dc:title>
      </cc:Work>
    </rdf:RDF>
  </metadata>
  <defs
     id="defs10" />
  <sodipodi:namedview
     pagecolor="#ffffff"
     bordercolor="#666666"
     borderopacity="1"
     objecttolerance="10"
     gridtolerance="10"
     guidetolerance="10"
     inkscape:pageopacity="0"
     inkscape:pageshadow="2"
     inkscape:window-width="1600"
     inkscape:window-height="838"
     id="namedview8"
     showgrid="false"
     inkscape:zoom="0.31240709"
     inkscape:cx="305.81557"
     inkscape:cy="-68.433024"
     inkscape:window-x="-8"
     inkscape:window-y="-8"
     inkscape:window-maximized="1"
     inkscape:current-layer="svg6" />
  <path
     d="m 188.29102,237.00968 c 16.00588,-16.81565 37.23739,-26.63831 62.18044,-26.63831 48.59187,0 80.80872,35.47824 86.97247,88.6271 1.99845,17.25993 1.98012,41.59383 1.96006,69.77888 -0.003,2.89032 -0.004,5.82167 -0.004,8.78966 v 105.58595 h -66.8231 v -78.09468 c 0,0 -0.13614,-66.83794 -0.54456,-79.32952 -1.79336,-54.40492 -34.00148,-88.59027 -83.74792,-88.627 -15.00884,15.85709 -23.05079,35.24514 -24.23677,64.89002 -0.16301,4.13477 -0.122,18.79061 -0.068,38.10658 0.028,10.00793 0.0595,21.26729 0.068,32.96213 0.0495,50.90274 0,110.10382 0,110.10382 H 97.224511 V 362.9775 c 0,-4.1182 -0.0751,-8.2713 -0.15039,-12.44098 -0.15156,-8.38736 -0.30431,-16.83929 0.15039,-25.20833 0.75499,-13.95159 3.168479,-27.66668 9.678679,-40.40767 14.90177,-29.18881 45.43556,-47.98239 77.98698,-47.98239 1.13712,0 2.27509,0.0262 3.40085,0.0699 z"
     class="Path-xrtkpd-0 eqfYiR"
     id="path2"
     inkscape:connector-curvature="0"
     style="stroke-width:8.72683239;fill:#820ad1;fill-opacity:1"
     inkscape:export-filename="C:\Users\alex\sites\nubank-logo-5.png"
     inkscape:export-xdpi="132.76538"
     inkscape:export-ydpi="132.76538" />
  <path
     d="m 602.77543,374.67319 c 0.45467,-8.36903 0.30194,-16.82184 0.15098,-25.20832 -0.0759,-4.16969 -0.15098,-8.32278 -0.15098,-12.44097 V 216.83682 H 535.9532 c 0,0 -0.0498,59.20109 0,110.10322 0.008,11.69483 0.0393,22.95332 0.0672,32.96125 0.0541,19.31684 0.0951,33.97268 -0.0672,38.10746 -1.18598,29.64592 -9.22862,49.03345 -24.23703,64.89098 -49.74557,-0.0349 -81.95281,-34.22315 -83.74705,-88.6271 -0.40842,-12.49159 -0.58121,-43.49017 -0.58121,-79.39227 v -78.09459 l -66.77336,0.061 v 105.58621 c 0,2.96799 -0.003,5.89847 -0.004,8.78966 -0.021,28.18505 -0.0384,52.51808 1.96004,69.77889 6.15068,53.14903 38.36753,88.62709 86.9594,88.62709 24.94391,0 46.17542,-9.82292 62.1813,-26.63864 1.12489,0.0436 2.262,0.0698 3.3991,0.0698 32.55109,0 63.0854,-18.79323 77.98734,-47.98187 6.51021,-12.74204 8.92319,-26.45626 9.67806,-40.40785 z"
     class="Path-xrtkpd-0 eqfYiR"
     id="path4"
     inkscape:connector-curvature="0"
     style="stroke-width:8.72683239;fill:#820ad1;fill-opacity:1"
     inkscape:export-filename="C:\Users\alex\sites\nubank-logo-5.png"
     inkscape:export-xdpi="132.76538"
     inkscape:export-ydpi="132.76538" />
  <rect
     style="opacity:1;vector-effect:none;fill:#820ad1;fill-opacity:1;fill-rule:evenodd;stroke:none;stroke-width:0.3471534;stroke-linecap:butt;stroke-linejoin:miter;stroke-miterlimit:4;stroke-dasharray:none;stroke-dashoffset:0;stroke-opacity:1;paint-order:fill markers stroke"
     id="rect833"
     width="725.56018"
     height="727.63916"
     x="-4.2243876"
     y="741.57074"
     inkscape:export-filename="C:\Users\alex\sites\nubank-logo-4.png"
     inkscape:export-xdpi="92.618095"
     inkscape:export-ydpi="92.618095" />
  <path
     d="m 215.50928,1004.9723 c 14.15846,-14.94464 32.93942,-23.67435 55.00378,-23.67435 42.98331,0 71.48165,31.53065 76.93401,78.76565 1.76777,15.3395 1.7516,36.9658 1.73389,62.0147 0,2.5688 0,5.1739 0,7.8117 v 93.8375 h -59.11044 v -69.4052 c 0,0 -0.12055,-59.4009 -0.48186,-70.5026 -1.58618,-48.3514 -30.07678,-78.733 -74.08169,-78.7656 -13.27642,14.0927 -20.39037,31.3234 -21.4394,57.6698 -0.14412,3.6747 -0.10791,16.6998 -0.0606,33.8665 0.0248,8.8944 0.0533,18.9009 0.0606,29.2945 0.045,45.2389 0,97.8527 0,97.8527 h -59.11053 v -106.8138 c 0,-3.6599 -0.067,-7.3509 -0.133,-11.0567 -0.13393,-7.4541 -0.26903,-14.9656 0.133,-22.4034 0.66803,-12.3992 2.80293,-24.5883 8.5618,-35.9115 13.18163,-25.9411 40.19134,-42.6435 68.98572,-42.6435 1.00577,0 2.01244,0.023 3.00821,0.062 z"
     class="Path-xrtkpd-0 eqfYiR"
     id="path2-6"
     inkscape:connector-curvature="0"
     style="fill:#ffffff;stroke-width:7.7376771"
     inkscape:export-filename="C:\Users\alex\sites\nubank-logo-4.png"
     inkscape:export-xdpi="92.618095"
     inkscape:export-ydpi="92.618095" />
  <path
     d="m 582.15414,1127.3182 c 0.40221,-7.4379 0.26714,-14.9501 0.1336,-22.4035 -0.0672,-3.7057 -0.1336,-7.3967 -0.1336,-11.0567 V 987.044 h -59.10962 c 0,0 -0.0443,52.6139 0,97.8522 0.01,10.3936 0.0346,20.3993 0.0593,29.2937 0.0478,17.1675 0.0841,30.1926 -0.0593,33.8673 -1.04911,26.3473 -8.16343,43.5776 -21.43959,57.6707 -44.00398,-0.031 -72.49385,-30.4153 -74.08105,-78.7657 -0.36125,-11.1017 -0.51418,-38.6511 -0.51418,-70.5584 v -69.40516 l -59.06635,0.0541 v 93.83786 c 0,2.6377 0,5.2421 0,7.8116 -0.0192,25.049 -0.033,46.6745 1.73387,62.0147 5.44071,47.2352 33.93905,78.7657 76.92255,78.7657 22.06501,0 40.84587,-8.7299 55.00436,-23.6746 0.99508,0.039 2.00094,0.062 3.00679,0.062 28.79408,0 55.80412,-16.7021 68.98605,-42.643 5.75889,-11.3243 7.89328,-23.5125 8.56105,-35.9117 z"
     class="Path-xrtkpd-0 eqfYiR"
     id="path4-5"
     inkscape:connector-curvature="0"
     style="fill:#ffffff;stroke-width:7.7376771"
     inkscape:export-filename="C:\Users\alex\sites\nubank-logo-4.png"
     inkscape:export-xdpi="92.618095"
     inkscape:export-ydpi="92.618095" />
</svg>
