<?xml version="1.0" encoding="utf-8"?>
<svg version="1.1" id="svg" xmlns="http://www.w3.org/2000/svg" xmlns:xlink="http://www.w3.org/1999/xlink" x="0px" y="0px"
	 viewBox="0 0 129 44" style="enable-background:new 0 0 129 44;" xml:space="preserve">
<style type="text/css">
	.st0{fill:#21C25E;}
</style>
<path class="st0" d="M28,34.3h5.8V17.4H28V34.3z M35.8,5.9h-3.9v3.9h3.9V5.9z M13.9,7.8H8.3v4.9h5.2c3.3,0,5.2,1.6,5.2,4.6
	S16.8,22,13.5,22H8.3v-9.2H2.5v21.5h5.8v-7.4h5.5c6.7,0,10.6-3.6,10.6-9.8C24.4,11.3,20.6,7.8,13.9,7.8z M39.7,2H28v11.7h11.7V2z
	 M37.8,11.7H30V3.9h7.8V11.7z M71.8,7.8h-5.3v4.9h5c3.3,0,5.2,1.6,5.2,4.6S74.8,22,71.5,22h-5v-9.2h-5.8v21.5h5.8v-7.4h5.3
	c6.7,0,10.6-3.6,10.6-9.8C82.4,11.3,78.5,7.8,71.8,7.8z M120.5,14l-5,12.6l-5-12.6h-6l8,20.3l-3.1,7.7h6.1l11-28H120.5z M94.5,13.9
	c-3.5,0-6.2,0.8-9.2,2.3l1.8,4c2.1-1.2,4.2-1.8,6.1-1.8c2.8,0,4.2,1.2,4.2,3.4v0.4h-5.6c-5,0-7.7,2.3-7.7,6.1c0,3.7,2.6,6.3,7,6.3
	c2.8,0,4.8-1,6.4-2.7v2.2h5.7V20.9C103,16.6,99.9,13.9,94.5,13.9z M97.9,27.5c-0.6,1.7-2.3,3.1-4.7,3.1c-2,0-3.2-1-3.2-2.6
	s1.1-2.3,3.3-2.3h4.6C97.9,25.7,97.9,27.5,97.9,27.5z M48.6,29.9c-2.8,0-4.8-2.2-4.8-5.5c0-3.2,2-5.4,4.8-5.4c2,0,3.5,0.8,4.6,2.2
	l3.9-2.8c-1.8-2.7-4.9-4.3-8.8-4.3C42.2,14,38,18.2,38,24.4s4.2,10.3,10.3,10.3c4.2,0,7.3-1.7,9-4.5l-4-2.7
	C52.3,29.1,50.7,29.9,48.6,29.9z"/>
</svg>
